<?xml version="1.0" encoding="UTF-8" standalone="no"?>
<!DOCTYPE svg PUBLIC "-//W3C//DTD SVG 1.1//EN"
 "http://www.w3.org/Graphics/SVG/1.1/DTD/svg11.dtd">
<!-- Generated by graphviz version 2.40.1 (20161225.0304)
 -->
<!-- Title: controllers_diagram Pages: 1 -->
<svg width="395pt" height="253pt"
 viewBox="0.00 0.00 395.38 253.00" xmlns="http://www.w3.org/2000/svg" xmlns:xlink="http://www.w3.org/1999/xlink">
<g id="graph0" class="graph" transform="scale(1 1) rotate(0) translate(4 249)">
<title>controllers_diagram</title>
<polygon fill="transparent" stroke="transparent" points="-4,4 -4,-249 391.3755,-249 391.3755,4 -4,4"/>
<!-- _diagram_info -->
<g id="node1" class="node">
<title>_diagram_info</title>
<text text-anchor="start" x="188" y="-94.6" font-family="Times,serif" font-size="13.00" fill="#000000">Controllers diagram</text>
<text text-anchor="start" x="188" y="-81.6" font-family="Times,serif" font-size="13.00" fill="#000000">Date: Feb 26 2018 &#45; 11:42</text>
<text text-anchor="start" x="188" y="-68.6" font-family="Times,serif" font-size="13.00" fill="#000000">Migration version: 20180225050501</text>
<text text-anchor="start" x="188" y="-55.6" font-family="Times,serif" font-size="13.00" fill="#000000">Generated by RailRoady 1.5.3</text>
<text text-anchor="start" x="188" y="-42.6" font-family="Times,serif" font-size="13.00" fill="#000000">http://railroady.prestonlee.com</text>
</g>
<!-- ApplicationController -->
<g id="node2" class="node">
<title>ApplicationController</title>
<path fill="none" stroke="#000000" d="M192,-144.5C192,-144.5 307.6416,-144.5 307.6416,-144.5 313.6416,-144.5 319.6416,-150.5 319.6416,-156.5 319.6416,-156.5 319.6416,-224.5 319.6416,-224.5 319.6416,-230.5 313.6416,-236.5 307.6416,-236.5 307.6416,-236.5 192,-236.5 192,-236.5 186,-236.5 180,-230.5 180,-224.5 180,-224.5 180,-156.5 180,-156.5 180,-150.5 186,-144.5 192,-144.5"/>
<text text-anchor="middle" x="249.8208" y="-221.3" font-family="Times,serif" font-size="14.00" fill="#000000">ApplicationController</text>
<polyline fill="none" stroke="#000000" points="180,-214.5 319.6416,-214.5 "/>
<polyline fill="none" stroke="#000000" points="180,-190.5 319.6416,-190.5 "/>
<polyline fill="none" stroke="#000000" points="180,-166.5 319.6416,-166.5 "/>
<text text-anchor="start" x="188" y="-151.3" font-family="Times,serif" font-size="14.00" fill="#000000">_layout</text>
</g>
<!-- HiresController -->
<g id="node3" class="node">
<title>HiresController</title>
<path fill="none" stroke="#000000" d="M12,-.5C12,-.5 136.9385,-.5 136.9385,-.5 142.9385,-.5 148.9385,-6.5 148.9385,-12.5 148.9385,-12.5 148.9385,-232.5 148.9385,-232.5 148.9385,-238.5 142.9385,-244.5 136.9385,-244.5 136.9385,-244.5 12,-244.5 12,-244.5 6,-244.5 0,-238.5 0,-232.5 0,-232.5 0,-12.5 0,-12.5 0,-6.5 6,-.5 12,-.5"/>
<text text-anchor="middle" x="74.4692" y="-229.3" font-family="Times,serif" font-size="14.00" fill="#000000">HiresController</text>
<polyline fill="none" stroke="#000000" points="0,-222.5 148.9385,-222.5 "/>
<text text-anchor="start" x="8" y="-207.3" font-family="Times,serif" font-size="14.00" fill="#000000">update</text>
<text text-anchor="start" x="8" y="-193.3" font-family="Times,serif" font-size="14.00" fill="#000000">current_hires</text>
<text text-anchor="start" x="8" y="-179.3" font-family="Times,serif" font-size="14.00" fill="#000000">edit</text>
<text text-anchor="start" x="8" y="-165.3" font-family="Times,serif" font-size="14.00" fill="#000000">future_hires</text>
<text text-anchor="start" x="8" y="-151.3" font-family="Times,serif" font-size="14.00" fill="#000000">index</text>
<text text-anchor="start" x="8" y="-137.3" font-family="Times,serif" font-size="14.00" fill="#000000">new</text>
<text text-anchor="start" x="8" y="-123.3" font-family="Times,serif" font-size="14.00" fill="#000000">past_hires</text>
<text text-anchor="start" x="8" y="-109.3" font-family="Times,serif" font-size="14.00" fill="#000000">set_account</text>
<text text-anchor="start" x="8" y="-95.3" font-family="Times,serif" font-size="14.00" fill="#000000">show</text>
<text text-anchor="start" x="8" y="-81.3" font-family="Times,serif" font-size="14.00" fill="#000000">create</text>
<polyline fill="none" stroke="#000000" points="0,-74.5 148.9385,-74.5 "/>
<polyline fill="none" stroke="#000000" points="0,-50.5 148.9385,-50.5 "/>
<text text-anchor="start" x="8" y="-35.3" font-family="Times,serif" font-size="14.00" fill="#000000">_layout</text>
<text text-anchor="start" x="8" y="-21.3" font-family="Times,serif" font-size="14.00" fill="#000000">hire_params</text>
<text text-anchor="start" x="8" y="-7.3" font-family="Times,serif" font-size="14.00" fill="#000000">redirect_non_registered</text>
</g>
</g>
</svg>
