<?xml version="1.0" encoding="UTF-8" standalone="no"?>
<!DOCTYPE svg PUBLIC "-//W3C//DTD SVG 1.1//EN"
 "http://www.w3.org/Graphics/SVG/1.1/DTD/svg11.dtd">
<!-- Generated by graphviz version 2.40.1 (20161225.0304)
 -->
<!-- Title: models_diagram Pages: 1 -->
<svg width="493pt" height="297pt"
 viewBox="0.00 0.00 492.69 297.00" xmlns="http://www.w3.org/2000/svg" xmlns:xlink="http://www.w3.org/1999/xlink">
<g id="graph0" class="graph" transform="scale(1 1) rotate(0) translate(4 293)">
<title>models_diagram</title>
<polygon fill="transparent" stroke="transparent" points="-4,4 -4,-293 488.6877,-293 488.6877,4 -4,4"/>
<!-- _diagram_info -->
<g id="node1" class="node">
<title>_diagram_info</title>
<text text-anchor="start" x="8" y="-274.6" font-family="Times,serif" font-size="13.00" fill="#000000">Models diagram</text>
<text text-anchor="start" x="8" y="-261.6" font-family="Times,serif" font-size="13.00" fill="#000000">Date: Feb 26 2018 &#45; 11:42</text>
<text text-anchor="start" x="8" y="-248.6" font-family="Times,serif" font-size="13.00" fill="#000000">Migration version: 20180225050501</text>
<text text-anchor="start" x="8" y="-235.6" font-family="Times,serif" font-size="13.00" fill="#000000">Generated by RailRoady 1.5.3</text>
<text text-anchor="start" x="8" y="-222.6" font-family="Times,serif" font-size="13.00" fill="#000000">http://railroady.prestonlee.com</text>
</g>
<!-- ApplicationRecord -->
<g id="node2" class="node">
<title>ApplicationRecord</title>
<ellipse fill="none" stroke="#000000" cx="302.6877" cy="-252.5" rx="77.2916" ry="18"/>
<text text-anchor="middle" x="302.6877" y="-248.3" font-family="Times,serif" font-size="14.00" fill="#000000">ApplicationRecord</text>
</g>
<!-- Group -->
<g id="node3" class="node">
<title>Group</title>
<ellipse fill="none" stroke="#000000" cx="430.6877" cy="-252.5" rx="32.9081" ry="18"/>
<text text-anchor="middle" x="430.6877" y="-248.3" font-family="Times,serif" font-size="14.00" fill="#000000">Group</text>
</g>
<!-- Hire -->
<g id="node4" class="node">
<title>Hire</title>
<ellipse fill="none" stroke="#000000" cx="429.6877" cy="-90" rx="27" ry="18"/>
<text text-anchor="middle" x="429.6877" y="-85.8" font-family="Times,serif" font-size="14.00" fill="#000000">Hire</text>
</g>
<!-- Group&#45;&gt;Hire -->
<g id="edge2" class="edge">
<title>Group&#45;&gt;Hire</title>
<path fill="none" stroke="#b6fbde" d="M426.2133,-226.2874C423.0157,-204.3189 419.6158,-172.1239 421.6877,-144 422.3144,-135.4935 423.4893,-126.2939 424.7493,-117.9399"/>
<ellipse fill="none" stroke="#b6fbde" cx="426.8583" cy="-230.5078" rx="4" ry="4"/>
<polygon fill="#b6fbde" stroke="#b6fbde" points="424.7717,-117.8 430.7994,-108.6394 425.564,-112.8632 426.3562,-107.9264 426.3562,-107.9264 426.3562,-107.9264 425.564,-112.8632 421.9131,-107.2133 424.7717,-117.8 424.7717,-117.8"/>
</g>
<!-- User -->
<g id="node6" class="node">
<title>User</title>
<ellipse fill="none" stroke="#000000" cx="457.6877" cy="-162" rx="27" ry="18"/>
<text text-anchor="middle" x="457.6877" y="-157.8" font-family="Times,serif" font-size="14.00" fill="#000000">User</text>
</g>
<!-- Group&#45;&gt;User -->
<g id="edge1" class="edge">
<title>Group&#45;&gt;User</title>
<path fill="none" stroke="#8c0c39" d="M438.3816,-226.7112C441.8397,-215.1202 445.9258,-201.4245 449.4463,-189.6242"/>
<ellipse fill="none" stroke="#8c0c39" cx="437.1657" cy="-230.7871" rx="4" ry="4"/>
<polygon fill="#8c0c39" stroke="#8c0c39" points="449.5055,-189.4254 456.6767,-181.1293 450.935,-184.6341 452.3645,-179.8427 452.3645,-179.8427 452.3645,-179.8427 450.935,-184.6341 448.0523,-178.5562 449.5055,-189.4254 449.5055,-189.4254"/>
</g>
<!-- Loan -->
<g id="node5" class="node">
<title>Loan</title>
<ellipse fill="none" stroke="#000000" cx="429.6877" cy="-18" rx="28.0565" ry="18"/>
<text text-anchor="middle" x="429.6877" y="-13.8" font-family="Times,serif" font-size="14.00" fill="#000000">Loan</text>
</g>
<!-- Hire&#45;&gt;Loan -->
<g id="edge3" class="edge">
<title>Hire&#45;&gt;Loan</title>
<path fill="none" stroke="#18b327" d="M429.6877,-63.8144C429.6877,-58.2775 429.6877,-52.4053 429.6877,-46.7785"/>
<ellipse fill="none" stroke="#18b327" cx="429.6878" cy="-67.8314" rx="4" ry="4"/>
<polygon fill="#18b327" stroke="#18b327" points="429.6878,-46.4133 434.1877,-36.4132 429.6878,-41.4133 429.6877,-36.4133 429.6877,-36.4133 429.6877,-36.4133 429.6878,-41.4133 425.1877,-36.4133 429.6878,-46.4133 429.6878,-46.4133"/>
</g>
<!-- User&#45;&gt;Hire -->
<g id="edge4" class="edge">
<title>User&#45;&gt;Hire</title>
<path fill="none" stroke="#384304" d="M447.2021,-135.037C444.9088,-129.1398 442.4809,-122.8966 440.187,-116.998"/>
<polygon fill="#384304" stroke="#384304" points="447.2852,-135.2508 446.7157,-146.2018 449.0975,-139.9108 450.9097,-144.5708 450.9097,-144.5708 450.9097,-144.5708 449.0975,-139.9108 455.1037,-142.9398 447.2852,-135.2508 447.2852,-135.2508"/>
<polygon fill="#384304" stroke="#384304" points="440.1249,-116.8383 440.6944,-105.8872 438.3127,-112.1783 436.5004,-107.5182 436.5004,-107.5182 436.5004,-107.5182 438.3127,-112.1783 432.3064,-109.1493 440.1249,-116.8383 440.1249,-116.8383"/>
</g>
</g>
</svg>
