<?xml version="1.0" encoding="UTF-8" standalone="no"?>
<!DOCTYPE svg PUBLIC "-//W3C//DTD SVG 1.1//EN"
 "http://www.w3.org/Graphics/SVG/1.1/DTD/svg11.dtd">
<!-- Generated by graphviz version 2.40.1 (20161225.0304)
 -->
<!-- Title: models_diagram Pages: 1 -->
<svg width="648pt" height="705pt"
 viewBox="0.00 0.00 647.73 705.00" xmlns="http://www.w3.org/2000/svg" xmlns:xlink="http://www.w3.org/1999/xlink">
<g id="graph0" class="graph" transform="scale(1 1) rotate(0) translate(4 701)">
<title>models_diagram</title>
<polygon fill="transparent" stroke="transparent" points="-4,4 -4,-701 643.7346,-701 643.7346,4 -4,4"/>
<!-- _diagram_info -->
<g id="node1" class="node">
<title>_diagram_info</title>
<text text-anchor="start" x="8" y="-682.6" font-family="Times,serif" font-size="13.00" fill="#000000">Models diagram</text>
<text text-anchor="start" x="8" y="-669.6" font-family="Times,serif" font-size="13.00" fill="#000000">Date: Feb 25 2018 &#45; 03:49</text>
<text text-anchor="start" x="8" y="-656.6" font-family="Times,serif" font-size="13.00" fill="#000000">Migration version: 20180224165956</text>
<text text-anchor="start" x="8" y="-643.6" font-family="Times,serif" font-size="13.00" fill="#000000">Generated by RailRoady 1.5.3</text>
<text text-anchor="start" x="8" y="-630.6" font-family="Times,serif" font-size="13.00" fill="#000000">http://railroady.prestonlee.com</text>
</g>
<!-- ApplicationRecord -->
<g id="node2" class="node">
<title>ApplicationRecord</title>
<ellipse fill="none" stroke="#000000" cx="302.6877" cy="-660.5" rx="77.2916" ry="18"/>
<text text-anchor="middle" x="302.6877" y="-656.3" font-family="Times,serif" font-size="14.00" fill="#000000">ApplicationRecord</text>
</g>
<!-- Group -->
<g id="node3" class="node">
<title>Group</title>
<path fill="none" stroke="#000000" d="M409.6892,-624.5C409.6892,-624.5 511.6863,-624.5 511.6863,-624.5 517.6863,-624.5 523.6863,-630.5 523.6863,-636.5 523.6863,-636.5 523.6863,-684.5 523.6863,-684.5 523.6863,-690.5 517.6863,-696.5 511.6863,-696.5 511.6863,-696.5 409.6892,-696.5 409.6892,-696.5 403.6892,-696.5 397.6892,-690.5 397.6892,-684.5 397.6892,-684.5 397.6892,-636.5 397.6892,-636.5 397.6892,-630.5 403.6892,-624.5 409.6892,-624.5"/>
<text text-anchor="middle" x="460.6877" y="-681.3" font-family="Times,serif" font-size="14.00" fill="#000000">Group</text>
<polyline fill="none" stroke="#000000" points="397.6892,-674.5 523.6863,-674.5 "/>
<text text-anchor="start" x="405.6892" y="-659.3" font-family="Times,serif" font-size="14.00" fill="#000000">id :bigint(20)</text>
<text text-anchor="start" x="405.6892" y="-645.3" font-family="Times,serif" font-size="14.00" fill="#000000">name :varchar(255)</text>
<text text-anchor="start" x="405.6892" y="-631.3" font-family="Times,serif" font-size="14.00" fill="#000000">address :text</text>
</g>
<!-- Hire -->
<g id="node4" class="node">
<title>Hire</title>
<path fill="none" stroke="#000000" d="M396.7112,-.5C396.7112,-.5 524.6643,-.5 524.6643,-.5 530.6643,-.5 536.6643,-6.5 536.6643,-12.5 536.6643,-12.5 536.6643,-144.5 536.6643,-144.5 536.6643,-150.5 530.6643,-156.5 524.6643,-156.5 524.6643,-156.5 396.7112,-156.5 396.7112,-156.5 390.7112,-156.5 384.7112,-150.5 384.7112,-144.5 384.7112,-144.5 384.7112,-12.5 384.7112,-12.5 384.7112,-6.5 390.7112,-.5 396.7112,-.5"/>
<text text-anchor="middle" x="460.6877" y="-141.3" font-family="Times,serif" font-size="14.00" fill="#000000">Hire</text>
<polyline fill="none" stroke="#000000" points="384.7112,-134.5 536.6643,-134.5 "/>
<text text-anchor="start" x="392.7112" y="-119.3" font-family="Times,serif" font-size="14.00" fill="#000000">group_id :int(11)</text>
<text text-anchor="start" x="392.7112" y="-105.3" font-family="Times,serif" font-size="14.00" fill="#000000">user_id :bigint(20)</text>
<text text-anchor="start" x="392.7112" y="-91.3" font-family="Times,serif" font-size="14.00" fill="#000000">collect_date :datetime</text>
<text text-anchor="start" x="392.7112" y="-77.3" font-family="Times,serif" font-size="14.00" fill="#000000">return_date :datetime</text>
<text text-anchor="start" x="392.7112" y="-63.3" font-family="Times,serif" font-size="14.00" fill="#000000">status :int(11)</text>
<text text-anchor="start" x="392.7112" y="-49.3" font-family="Times,serif" font-size="14.00" fill="#000000">band :int(11)</text>
<text text-anchor="start" x="392.7112" y="-35.3" font-family="Times,serif" font-size="14.00" fill="#000000">reference :text</text>
<text text-anchor="start" x="392.7112" y="-21.3" font-family="Times,serif" font-size="14.00" fill="#000000">invoice_number :int(11)</text>
<text text-anchor="start" x="392.7112" y="-7.3" font-family="Times,serif" font-size="14.00" fill="#000000">id :bigint(20)</text>
</g>
<!-- Group&#45;&gt;Hire -->
<g id="edge2" class="edge">
<title>Group&#45;&gt;Hire</title>
<path fill="none" stroke="#08c3ca" d="M424.9293,-617.5305C419.0686,-608.306 413.8755,-598.2372 410.6877,-588 358.4932,-420.3829 374.8023,-364.8487 410.6877,-193 412.5437,-184.1119 415.1296,-175.0692 418.157,-166.1599"/>
<ellipse fill="none" stroke="#08c3ca" cx="427.2987" cy="-621.0814" rx="4" ry="4"/>
<polygon fill="#08c3ca" stroke="#08c3ca" points="418.2247,-165.9711 425.8374,-158.0782 419.9133,-161.2648 421.6018,-156.5585 421.6018,-156.5585 421.6018,-156.5585 419.9133,-161.2648 417.3661,-155.0388 418.2247,-165.9711 418.2247,-165.9711"/>
</g>
<!-- User -->
<g id="node5" class="node">
<title>User</title>
<path fill="none" stroke="#000000" d="M431.6409,-193.5C431.6409,-193.5 627.7346,-193.5 627.7346,-193.5 633.7346,-193.5 639.7346,-199.5 639.7346,-205.5 639.7346,-205.5 639.7346,-575.5 639.7346,-575.5 639.7346,-581.5 633.7346,-587.5 627.7346,-587.5 627.7346,-587.5 431.6409,-587.5 431.6409,-587.5 425.6409,-587.5 419.6409,-581.5 419.6409,-575.5 419.6409,-575.5 419.6409,-205.5 419.6409,-205.5 419.6409,-199.5 425.6409,-193.5 431.6409,-193.5"/>
<text text-anchor="middle" x="529.6877" y="-572.3" font-family="Times,serif" font-size="14.00" fill="#000000">User</text>
<polyline fill="none" stroke="#000000" points="419.6409,-565.5 639.7346,-565.5 "/>
<text text-anchor="start" x="427.6409" y="-550.3" font-family="Times,serif" font-size="14.00" fill="#000000">locked_at :datetime</text>
<text text-anchor="start" x="427.6409" y="-536.3" font-family="Times,serif" font-size="14.00" fill="#000000">group_id :int(11)</text>
<text text-anchor="start" x="427.6409" y="-522.3" font-family="Times,serif" font-size="14.00" fill="#000000">role :varchar(255)</text>
<text text-anchor="start" x="427.6409" y="-508.3" font-family="Times,serif" font-size="14.00" fill="#000000">username :varchar(255)</text>
<text text-anchor="start" x="427.6409" y="-494.3" font-family="Times,serif" font-size="14.00" fill="#000000">name :varchar(255)</text>
<text text-anchor="start" x="427.6409" y="-480.3" font-family="Times,serif" font-size="14.00" fill="#000000">surname :varchar(255)</text>
<text text-anchor="start" x="427.6409" y="-466.3" font-family="Times,serif" font-size="14.00" fill="#000000">telephone :varchar(255)</text>
<text text-anchor="start" x="427.6409" y="-452.3" font-family="Times,serif" font-size="14.00" fill="#000000">email :varchar(255)</text>
<text text-anchor="start" x="427.6409" y="-438.3" font-family="Times,serif" font-size="14.00" fill="#000000">encrypted_password :varchar(255)</text>
<text text-anchor="start" x="427.6409" y="-424.3" font-family="Times,serif" font-size="14.00" fill="#000000">created_at :datetime</text>
<text text-anchor="start" x="427.6409" y="-410.3" font-family="Times,serif" font-size="14.00" fill="#000000">updated_at :datetime</text>
<text text-anchor="start" x="427.6409" y="-396.3" font-family="Times,serif" font-size="14.00" fill="#000000">reset_password_token :varchar(255)</text>
<text text-anchor="start" x="427.6409" y="-382.3" font-family="Times,serif" font-size="14.00" fill="#000000">reset_password_sent_at :datetime</text>
<text text-anchor="start" x="427.6409" y="-368.3" font-family="Times,serif" font-size="14.00" fill="#000000">remember_created_at :datetime</text>
<text text-anchor="start" x="427.6409" y="-354.3" font-family="Times,serif" font-size="14.00" fill="#000000">sign_in_count :int(11)</text>
<text text-anchor="start" x="427.6409" y="-340.3" font-family="Times,serif" font-size="14.00" fill="#000000">current_sign_in_at :datetime</text>
<text text-anchor="start" x="427.6409" y="-326.3" font-family="Times,serif" font-size="14.00" fill="#000000">last_sign_in_at :datetime</text>
<text text-anchor="start" x="427.6409" y="-312.3" font-family="Times,serif" font-size="14.00" fill="#000000">current_sign_in_ip :varchar(255)</text>
<text text-anchor="start" x="427.6409" y="-298.3" font-family="Times,serif" font-size="14.00" fill="#000000">last_sign_in_ip :varchar(255)</text>
<text text-anchor="start" x="427.6409" y="-284.3" font-family="Times,serif" font-size="14.00" fill="#000000">confirmation_token :varchar(255)</text>
<text text-anchor="start" x="427.6409" y="-270.3" font-family="Times,serif" font-size="14.00" fill="#000000">confirmed_at :datetime</text>
<text text-anchor="start" x="427.6409" y="-256.3" font-family="Times,serif" font-size="14.00" fill="#000000">confirmation_sent_at :datetime</text>
<text text-anchor="start" x="427.6409" y="-242.3" font-family="Times,serif" font-size="14.00" fill="#000000">unconfirmed_email :varchar(255)</text>
<text text-anchor="start" x="427.6409" y="-228.3" font-family="Times,serif" font-size="14.00" fill="#000000">failed_attempts :int(11)</text>
<text text-anchor="start" x="427.6409" y="-214.3" font-family="Times,serif" font-size="14.00" fill="#000000">unlock_token :varchar(255)</text>
<text text-anchor="start" x="427.6409" y="-200.3" font-family="Times,serif" font-size="14.00" fill="#000000">id :bigint(20)</text>
</g>
<!-- Group&#45;&gt;User -->
<g id="edge1" class="edge">
<title>Group&#45;&gt;User</title>
<path fill="none" stroke="#5585cc" d="M471.9202,-616.5468C473.4352,-610.6186 475.0623,-604.2518 476.775,-597.55"/>
<ellipse fill="none" stroke="#5585cc" cx="470.9122" cy="-620.4913" rx="4" ry="4"/>
<polygon fill="#5585cc" stroke="#5585cc" points="476.8664,-597.1919 483.7023,-588.6175 478.1044,-592.3476 479.3425,-587.5033 479.3425,-587.5033 479.3425,-587.5033 478.1044,-592.3476 474.9826,-586.389 476.8664,-597.1919 476.8664,-597.1919"/>
</g>
<!-- User&#45;&gt;Hire -->
<g id="edge3" class="edge">
<title>User&#45;&gt;Hire</title>
<path fill="none" stroke="#ab5588" d="M484.3166,-185.3437C482.9132,-178.9975 481.5364,-172.7721 480.197,-166.7159"/>
<ellipse fill="none" stroke="#ab5588" cx="485.2231" cy="-189.4425" rx="4" ry="4"/>
<polygon fill="#ab5588" stroke="#ab5588" points="480.1397,-166.4562 482.3741,-155.7204 479.06,-161.5742 477.9802,-156.6921 477.9802,-156.6921 477.9802,-156.6921 479.06,-161.5742 473.5864,-157.6639 480.1397,-166.4562 480.1397,-166.4562"/>
</g>
</g>
</svg>
