<?xml version="1.0" encoding="UTF-8" standalone="no"?>
<!DOCTYPE svg PUBLIC "-//W3C//DTD SVG 1.1//EN"
 "http://www.w3.org/Graphics/SVG/1.1/DTD/svg11.dtd">
<!-- Generated by graphviz version 2.40.1 (20161225.0304)
 -->
<!-- Title: models_diagram Pages: 1 -->
<svg width="493pt" height="225pt"
 viewBox="0.00 0.00 492.69 225.00" xmlns="http://www.w3.org/2000/svg" xmlns:xlink="http://www.w3.org/1999/xlink">
<g id="graph0" class="graph" transform="scale(1 1) rotate(0) translate(4 221)">
<title>models_diagram</title>
<polygon fill="transparent" stroke="transparent" points="-4,4 -4,-221 488.6877,-221 488.6877,4 -4,4"/>
<!-- _diagram_info -->
<g id="node1" class="node">
<title>_diagram_info</title>
<text text-anchor="start" x="8" y="-202.6" font-family="Times,serif" font-size="13.00" fill="#000000">Models diagram</text>
<text text-anchor="start" x="8" y="-189.6" font-family="Times,serif" font-size="13.00" fill="#000000">Date: Feb 25 2018 &#45; 03:50</text>
<text text-anchor="start" x="8" y="-176.6" font-family="Times,serif" font-size="13.00" fill="#000000">Migration version: 20180224165956</text>
<text text-anchor="start" x="8" y="-163.6" font-family="Times,serif" font-size="13.00" fill="#000000">Generated by RailRoady 1.5.3</text>
<text text-anchor="start" x="8" y="-150.6" font-family="Times,serif" font-size="13.00" fill="#000000">http://railroady.prestonlee.com</text>
</g>
<!-- ApplicationRecord -->
<g id="node2" class="node">
<title>ApplicationRecord</title>
<ellipse fill="none" stroke="#000000" cx="302.6877" cy="-180.5" rx="77.2916" ry="18"/>
<text text-anchor="middle" x="302.6877" y="-176.3" font-family="Times,serif" font-size="14.00" fill="#000000">ApplicationRecord</text>
</g>
<!-- Group -->
<g id="node3" class="node">
<title>Group</title>
<ellipse fill="none" stroke="#000000" cx="430.6877" cy="-180.5" rx="32.9081" ry="18"/>
<text text-anchor="middle" x="430.6877" y="-176.3" font-family="Times,serif" font-size="14.00" fill="#000000">Group</text>
</g>
<!-- Hire -->
<g id="node4" class="node">
<title>Hire</title>
<ellipse fill="none" stroke="#000000" cx="429.6877" cy="-18" rx="27" ry="18"/>
<text text-anchor="middle" x="429.6877" y="-13.8" font-family="Times,serif" font-size="14.00" fill="#000000">Hire</text>
</g>
<!-- Group&#45;&gt;Hire -->
<g id="edge2" class="edge">
<title>Group&#45;&gt;Hire</title>
<path fill="none" stroke="#77d678" d="M426.2133,-154.2874C423.0157,-132.3189 419.6158,-100.1239 421.6877,-72 422.3144,-63.4935 423.4893,-54.2939 424.7493,-45.9399"/>
<ellipse fill="none" stroke="#77d678" cx="426.8583" cy="-158.5078" rx="4" ry="4"/>
<polygon fill="#77d678" stroke="#77d678" points="424.7717,-45.8 430.7994,-36.6394 425.564,-40.8632 426.3562,-35.9264 426.3562,-35.9264 426.3562,-35.9264 425.564,-40.8632 421.9131,-35.2133 424.7717,-45.8 424.7717,-45.8"/>
</g>
<!-- User -->
<g id="node5" class="node">
<title>User</title>
<ellipse fill="none" stroke="#000000" cx="457.6877" cy="-90" rx="27" ry="18"/>
<text text-anchor="middle" x="457.6877" y="-85.8" font-family="Times,serif" font-size="14.00" fill="#000000">User</text>
</g>
<!-- Group&#45;&gt;User -->
<g id="edge1" class="edge">
<title>Group&#45;&gt;User</title>
<path fill="none" stroke="#490fac" d="M438.3816,-154.7112C441.8397,-143.1202 445.9258,-129.4245 449.4463,-117.6242"/>
<ellipse fill="none" stroke="#490fac" cx="437.1657" cy="-158.7871" rx="4" ry="4"/>
<polygon fill="#490fac" stroke="#490fac" points="449.5055,-117.4254 456.6767,-109.1293 450.935,-112.6341 452.3645,-107.8427 452.3645,-107.8427 452.3645,-107.8427 450.935,-112.6341 448.0523,-106.5562 449.5055,-117.4254 449.5055,-117.4254"/>
</g>
<!-- User&#45;&gt;Hire -->
<g id="edge3" class="edge">
<title>User&#45;&gt;Hire</title>
<path fill="none" stroke="#0a2a23" d="M447.996,-65.0784C445.5102,-58.6863 442.8236,-51.7778 440.2942,-45.2737"/>
<ellipse fill="none" stroke="#0a2a23" cx="449.4599" cy="-68.8428" rx="4" ry="4"/>
<polygon fill="#0a2a23" stroke="#0a2a23" points="440.1249,-44.8383 440.6944,-33.8872 438.3127,-40.1783 436.5004,-35.5182 436.5004,-35.5182 436.5004,-35.5182 438.3127,-40.1783 432.3064,-37.1493 440.1249,-44.8383 440.1249,-44.8383"/>
</g>
</g>
</svg>
