<?xml version="1.0" encoding="UTF-8" standalone="no"?>
<!DOCTYPE svg PUBLIC "-//W3C//DTD SVG 1.1//EN"
 "http://www.w3.org/Graphics/SVG/1.1/DTD/svg11.dtd">
<!-- Generated by graphviz version 2.40.1 (20161225.0304)
 -->
<!-- Title: models_diagram Pages: 1 -->
<svg width="648pt" height="870pt"
 viewBox="0.00 0.00 647.73 870.00" xmlns="http://www.w3.org/2000/svg" xmlns:xlink="http://www.w3.org/1999/xlink">
<g id="graph0" class="graph" transform="scale(1 1) rotate(0) translate(4 866)">
<title>models_diagram</title>
<polygon fill="transparent" stroke="transparent" points="-4,4 -4,-866 643.7346,-866 643.7346,4 -4,4"/>
<!-- _diagram_info -->
<g id="node1" class="node">
<title>_diagram_info</title>
<text text-anchor="start" x="8" y="-847.6" font-family="Times,serif" font-size="13.00" fill="#000000">Models diagram</text>
<text text-anchor="start" x="8" y="-834.6" font-family="Times,serif" font-size="13.00" fill="#000000">Date: Feb 26 2018 &#45; 11:42</text>
<text text-anchor="start" x="8" y="-821.6" font-family="Times,serif" font-size="13.00" fill="#000000">Migration version: 20180225050501</text>
<text text-anchor="start" x="8" y="-808.6" font-family="Times,serif" font-size="13.00" fill="#000000">Generated by RailRoady 1.5.3</text>
<text text-anchor="start" x="8" y="-795.6" font-family="Times,serif" font-size="13.00" fill="#000000">http://railroady.prestonlee.com</text>
</g>
<!-- ApplicationRecord -->
<g id="node2" class="node">
<title>ApplicationRecord</title>
<ellipse fill="none" stroke="#000000" cx="302.6877" cy="-825.5" rx="77.2916" ry="18"/>
<text text-anchor="middle" x="302.6877" y="-821.3" font-family="Times,serif" font-size="14.00" fill="#000000">ApplicationRecord</text>
</g>
<!-- Group -->
<g id="node3" class="node">
<title>Group</title>
<path fill="none" stroke="#000000" d="M409.6892,-789.5C409.6892,-789.5 511.6863,-789.5 511.6863,-789.5 517.6863,-789.5 523.6863,-795.5 523.6863,-801.5 523.6863,-801.5 523.6863,-849.5 523.6863,-849.5 523.6863,-855.5 517.6863,-861.5 511.6863,-861.5 511.6863,-861.5 409.6892,-861.5 409.6892,-861.5 403.6892,-861.5 397.6892,-855.5 397.6892,-849.5 397.6892,-849.5 397.6892,-801.5 397.6892,-801.5 397.6892,-795.5 403.6892,-789.5 409.6892,-789.5"/>
<text text-anchor="middle" x="460.6877" y="-846.3" font-family="Times,serif" font-size="14.00" fill="#000000">Group</text>
<polyline fill="none" stroke="#000000" points="397.6892,-839.5 523.6863,-839.5 "/>
<text text-anchor="start" x="405.6892" y="-824.3" font-family="Times,serif" font-size="14.00" fill="#000000">id :bigint(20)</text>
<text text-anchor="start" x="405.6892" y="-810.3" font-family="Times,serif" font-size="14.00" fill="#000000">name :varchar(255)</text>
<text text-anchor="start" x="405.6892" y="-796.3" font-family="Times,serif" font-size="14.00" fill="#000000">address :text</text>
</g>
<!-- Hire -->
<g id="node4" class="node">
<title>Hire</title>
<path fill="none" stroke="#000000" d="M396.7112,-165.5C396.7112,-165.5 524.6643,-165.5 524.6643,-165.5 530.6643,-165.5 536.6643,-171.5 536.6643,-177.5 536.6643,-177.5 536.6643,-309.5 536.6643,-309.5 536.6643,-315.5 530.6643,-321.5 524.6643,-321.5 524.6643,-321.5 396.7112,-321.5 396.7112,-321.5 390.7112,-321.5 384.7112,-315.5 384.7112,-309.5 384.7112,-309.5 384.7112,-177.5 384.7112,-177.5 384.7112,-171.5 390.7112,-165.5 396.7112,-165.5"/>
<text text-anchor="middle" x="460.6877" y="-306.3" font-family="Times,serif" font-size="14.00" fill="#000000">Hire</text>
<polyline fill="none" stroke="#000000" points="384.7112,-299.5 536.6643,-299.5 "/>
<text text-anchor="start" x="392.7112" y="-284.3" font-family="Times,serif" font-size="14.00" fill="#000000">group_id :int(11)</text>
<text text-anchor="start" x="392.7112" y="-270.3" font-family="Times,serif" font-size="14.00" fill="#000000">user_id :bigint(20)</text>
<text text-anchor="start" x="392.7112" y="-256.3" font-family="Times,serif" font-size="14.00" fill="#000000">collect_date :datetime</text>
<text text-anchor="start" x="392.7112" y="-242.3" font-family="Times,serif" font-size="14.00" fill="#000000">return_date :datetime</text>
<text text-anchor="start" x="392.7112" y="-228.3" font-family="Times,serif" font-size="14.00" fill="#000000">status :int(11)</text>
<text text-anchor="start" x="392.7112" y="-214.3" font-family="Times,serif" font-size="14.00" fill="#000000">band :int(11)</text>
<text text-anchor="start" x="392.7112" y="-200.3" font-family="Times,serif" font-size="14.00" fill="#000000">reference :text</text>
<text text-anchor="start" x="392.7112" y="-186.3" font-family="Times,serif" font-size="14.00" fill="#000000">invoice_number :int(11)</text>
<text text-anchor="start" x="392.7112" y="-172.3" font-family="Times,serif" font-size="14.00" fill="#000000">id :bigint(20)</text>
</g>
<!-- Group&#45;&gt;Hire -->
<g id="edge2" class="edge">
<title>Group&#45;&gt;Hire</title>
<path fill="none" stroke="#491f38" d="M424.9293,-782.5305C419.0686,-773.306 413.8755,-763.2372 410.6877,-753 358.4932,-585.3829 374.8023,-529.8487 410.6877,-358 412.5437,-349.1119 415.1296,-340.0692 418.157,-331.1599"/>
<ellipse fill="none" stroke="#491f38" cx="427.2987" cy="-786.0814" rx="4" ry="4"/>
<polygon fill="#491f38" stroke="#491f38" points="418.2247,-330.9711 425.8374,-323.0782 419.9133,-326.2648 421.6018,-321.5585 421.6018,-321.5585 421.6018,-321.5585 419.9133,-326.2648 417.3661,-320.0388 418.2247,-330.9711 418.2247,-330.9711"/>
</g>
<!-- User -->
<g id="node6" class="node">
<title>User</title>
<path fill="none" stroke="#000000" d="M431.6409,-358.5C431.6409,-358.5 627.7346,-358.5 627.7346,-358.5 633.7346,-358.5 639.7346,-364.5 639.7346,-370.5 639.7346,-370.5 639.7346,-740.5 639.7346,-740.5 639.7346,-746.5 633.7346,-752.5 627.7346,-752.5 627.7346,-752.5 431.6409,-752.5 431.6409,-752.5 425.6409,-752.5 419.6409,-746.5 419.6409,-740.5 419.6409,-740.5 419.6409,-370.5 419.6409,-370.5 419.6409,-364.5 425.6409,-358.5 431.6409,-358.5"/>
<text text-anchor="middle" x="529.6877" y="-737.3" font-family="Times,serif" font-size="14.00" fill="#000000">User</text>
<polyline fill="none" stroke="#000000" points="419.6409,-730.5 639.7346,-730.5 "/>
<text text-anchor="start" x="427.6409" y="-715.3" font-family="Times,serif" font-size="14.00" fill="#000000">locked_at :datetime</text>
<text text-anchor="start" x="427.6409" y="-701.3" font-family="Times,serif" font-size="14.00" fill="#000000">group_id :int(11)</text>
<text text-anchor="start" x="427.6409" y="-687.3" font-family="Times,serif" font-size="14.00" fill="#000000">role :varchar(255)</text>
<text text-anchor="start" x="427.6409" y="-673.3" font-family="Times,serif" font-size="14.00" fill="#000000">username :varchar(255)</text>
<text text-anchor="start" x="427.6409" y="-659.3" font-family="Times,serif" font-size="14.00" fill="#000000">name :varchar(255)</text>
<text text-anchor="start" x="427.6409" y="-645.3" font-family="Times,serif" font-size="14.00" fill="#000000">surname :varchar(255)</text>
<text text-anchor="start" x="427.6409" y="-631.3" font-family="Times,serif" font-size="14.00" fill="#000000">telephone :varchar(255)</text>
<text text-anchor="start" x="427.6409" y="-617.3" font-family="Times,serif" font-size="14.00" fill="#000000">email :varchar(255)</text>
<text text-anchor="start" x="427.6409" y="-603.3" font-family="Times,serif" font-size="14.00" fill="#000000">encrypted_password :varchar(255)</text>
<text text-anchor="start" x="427.6409" y="-589.3" font-family="Times,serif" font-size="14.00" fill="#000000">created_at :datetime</text>
<text text-anchor="start" x="427.6409" y="-575.3" font-family="Times,serif" font-size="14.00" fill="#000000">updated_at :datetime</text>
<text text-anchor="start" x="427.6409" y="-561.3" font-family="Times,serif" font-size="14.00" fill="#000000">reset_password_token :varchar(255)</text>
<text text-anchor="start" x="427.6409" y="-547.3" font-family="Times,serif" font-size="14.00" fill="#000000">reset_password_sent_at :datetime</text>
<text text-anchor="start" x="427.6409" y="-533.3" font-family="Times,serif" font-size="14.00" fill="#000000">remember_created_at :datetime</text>
<text text-anchor="start" x="427.6409" y="-519.3" font-family="Times,serif" font-size="14.00" fill="#000000">sign_in_count :int(11)</text>
<text text-anchor="start" x="427.6409" y="-505.3" font-family="Times,serif" font-size="14.00" fill="#000000">current_sign_in_at :datetime</text>
<text text-anchor="start" x="427.6409" y="-491.3" font-family="Times,serif" font-size="14.00" fill="#000000">last_sign_in_at :datetime</text>
<text text-anchor="start" x="427.6409" y="-477.3" font-family="Times,serif" font-size="14.00" fill="#000000">current_sign_in_ip :varchar(255)</text>
<text text-anchor="start" x="427.6409" y="-463.3" font-family="Times,serif" font-size="14.00" fill="#000000">last_sign_in_ip :varchar(255)</text>
<text text-anchor="start" x="427.6409" y="-449.3" font-family="Times,serif" font-size="14.00" fill="#000000">confirmation_token :varchar(255)</text>
<text text-anchor="start" x="427.6409" y="-435.3" font-family="Times,serif" font-size="14.00" fill="#000000">confirmed_at :datetime</text>
<text text-anchor="start" x="427.6409" y="-421.3" font-family="Times,serif" font-size="14.00" fill="#000000">confirmation_sent_at :datetime</text>
<text text-anchor="start" x="427.6409" y="-407.3" font-family="Times,serif" font-size="14.00" fill="#000000">unconfirmed_email :varchar(255)</text>
<text text-anchor="start" x="427.6409" y="-393.3" font-family="Times,serif" font-size="14.00" fill="#000000">failed_attempts :int(11)</text>
<text text-anchor="start" x="427.6409" y="-379.3" font-family="Times,serif" font-size="14.00" fill="#000000">unlock_token :varchar(255)</text>
<text text-anchor="start" x="427.6409" y="-365.3" font-family="Times,serif" font-size="14.00" fill="#000000">id :bigint(20)</text>
</g>
<!-- Group&#45;&gt;User -->
<g id="edge1" class="edge">
<title>Group&#45;&gt;User</title>
<path fill="none" stroke="#42733b" d="M471.9202,-781.5468C473.4352,-775.6186 475.0623,-769.2518 476.775,-762.55"/>
<ellipse fill="none" stroke="#42733b" cx="470.9122" cy="-785.4913" rx="4" ry="4"/>
<polygon fill="#42733b" stroke="#42733b" points="476.8664,-762.1919 483.7023,-753.6175 478.1044,-757.3476 479.3425,-752.5033 479.3425,-752.5033 479.3425,-752.5033 478.1044,-757.3476 474.9826,-751.389 476.8664,-762.1919 476.8664,-762.1919"/>
</g>
<!-- Loan -->
<g id="node5" class="node">
<title>Loan</title>
<path fill="none" stroke="#000000" d="M397.6375,-.5C397.6375,-.5 523.738,-.5 523.738,-.5 529.738,-.5 535.738,-6.5 535.738,-12.5 535.738,-12.5 535.738,-116.5 535.738,-116.5 535.738,-122.5 529.738,-128.5 523.738,-128.5 523.738,-128.5 397.6375,-128.5 397.6375,-128.5 391.6375,-128.5 385.6375,-122.5 385.6375,-116.5 385.6375,-116.5 385.6375,-12.5 385.6375,-12.5 385.6375,-6.5 391.6375,-.5 397.6375,-.5"/>
<text text-anchor="middle" x="460.6877" y="-113.3" font-family="Times,serif" font-size="14.00" fill="#000000">Loan</text>
<polyline fill="none" stroke="#000000" points="385.6375,-106.5 535.738,-106.5 "/>
<text text-anchor="start" x="393.6375" y="-91.3" font-family="Times,serif" font-size="14.00" fill="#000000">date_out :datetime</text>
<text text-anchor="start" x="393.6375" y="-77.3" font-family="Times,serif" font-size="14.00" fill="#000000">hire_id :bigint(20)</text>
<text text-anchor="start" x="393.6375" y="-63.3" font-family="Times,serif" font-size="14.00" fill="#000000">name_tag :varchar(255)</text>
<text text-anchor="start" x="393.6375" y="-49.3" font-family="Times,serif" font-size="14.00" fill="#000000">id :bigint(20)</text>
<text text-anchor="start" x="393.6375" y="-35.3" font-family="Times,serif" font-size="14.00" fill="#000000">date_back :datetime</text>
<text text-anchor="start" x="393.6375" y="-21.3" font-family="Times,serif" font-size="14.00" fill="#000000">created_at :datetime</text>
<text text-anchor="start" x="393.6375" y="-7.3" font-family="Times,serif" font-size="14.00" fill="#000000">updated_at :datetime</text>
</g>
<!-- Hire&#45;&gt;Loan -->
<g id="edge3" class="edge">
<title>Hire&#45;&gt;Loan</title>
<path fill="none" stroke="#f6f93a" d="M460.6877,-157.1916C460.6877,-151.0307 460.6877,-144.8497 460.6877,-138.7655"/>
<ellipse fill="none" stroke="#f6f93a" cx="460.6878" cy="-161.2484" rx="4" ry="4"/>
<polygon fill="#f6f93a" stroke="#f6f93a" points="460.6878,-138.6382 465.1877,-128.6382 460.6878,-133.6382 460.6877,-128.6382 460.6877,-128.6382 460.6877,-128.6382 460.6878,-133.6382 456.1877,-128.6383 460.6878,-138.6382 460.6878,-138.6382"/>
</g>
<!-- User&#45;&gt;Hire -->
<g id="edge4" class="edge">
<title>User&#45;&gt;Hire</title>
<path fill="none" stroke="#4c361c" d="M483.9269,-348.5814C482.6436,-342.7787 481.3837,-337.0816 480.1553,-331.5273"/>
<polygon fill="#4c361c" stroke="#4c361c" points="483.9274,-348.584 481.693,-359.3198 485.0071,-353.4661 486.0868,-358.3481 486.0868,-358.3481 486.0868,-358.3481 485.0071,-353.4661 490.4807,-357.3763 483.9274,-348.584 483.9274,-348.584"/>
<polygon fill="#4c361c" stroke="#4c361c" points="480.1397,-331.4562 482.3741,-320.7204 479.06,-326.5742 477.9802,-321.6921 477.9802,-321.6921 477.9802,-321.6921 479.06,-326.5742 473.5864,-322.6639 480.1397,-331.4562 480.1397,-331.4562"/>
</g>
</g>
</svg>
